HIERARCHY
ROOT Hips
{
	OFFSET 0.00000 0.00000 0.00000
	CHANNELS 6 Xposition Yposition Zposition Yrotation Zrotation Xrotation 
	JOINT Lumbar
	{
		OFFSET 0 0 0
		CHANNELS 3 Zrotation Xrotation Yrotation
		JOINT Neck
		{
			OFFSET 0.00 0.2701 0.00
			CHANNELS 3 Zrotation Xrotation Yrotation
			End Site
			{
				OFFSET 0.00 0.1379 0.00
			}
		}
		JOINT RightShoulder
		{
			OFFSET 0.0119 0.2289 0.1181
			CHANNELS 3 Zrotation Xrotation Yrotation
			JOINT RightElbow
			{
				OFFSET 0.00 -0.1475 0.00
				CHANNELS 2 Zrotation Yrotation
				JOINT RightWrist
				{
					OFFSET 0.00 -0.1605 0.00
					CHANNELS 2 Zrotation Xrotation
					End Site
					{
						OFFSET 0.0040 -0.1068 0.0006
					}
				}
			}
		}
		JOINT LeftShoulder
		{
			OFFSET 0.0119 0.2289 -0.1181
			CHANNELS 3 Zrotation Xrotation Yrotation
			JOINT LeftElbow
			{
				OFFSET 0.00 -0.1475 0.00
				CHANNELS 2 Zrotation Yrotation
				JOINT LeftWrist
				{
					OFFSET 0.00 -0.1605 0.00
					CHANNELS 2 Zrotation Xrotation
					End Site
					{
						OFFSET 0.0040 -0.1068 -0.0006
					}
				}
			}
		}
	}
	JOINT RightHip
	{
		OFFSET 0.0316 -0.0424 0.0458
		CHANNELS 3 Zrotation Xrotation Yrotation
		JOINT RightKnee
		{
			OFFSET 0.00 -0.2438 0.00
			CHANNELS 1 Zrotation
			JOINT RightAnkle
			{
				OFFSET 0.00 -0.2449 0.00
				CHANNELS 3 Zrotation Xrotation Yrotation
				End Site
				{
					OFFSET 0.1237 -0.0542 0.0051
				}
			}
		}
	}
	JOINT LeftHip
	{
		OFFSET 0.0316 -0.0424 -0.0458
		CHANNELS 3 Zrotation Xrotation Yrotation
		JOINT LeftKnee
		{
			OFFSET 0.00 -0.2438 0.00
			CHANNELS 1 Zrotation
			JOINT LeftAnkle
			{
				OFFSET 0.00 -0.2449 0.00
				CHANNELS 3 Zrotation Xrotation Yrotation
				End Site
				{
					OFFSET 0.1237 -0.0542 -0.0051
				}
			}
		}
	}
}
MOTION
Frames: 20
Frame Time: 0.02
-0 0.57926 -0 181.34489 0 -5.97456 2.2817 2.59424 -3.75072 -32.09959 9.15377 7.95563 21.70713 -25.42916 5.46234 9.50752 80.86116 -1.23277 -1.78111 22.72668 3.15578 -5.05273 6.50484 -79.62463 -2.6604 1.53593 0.30067 4.00811 4.21902 -9.46412 -13.98692 -2.30574 -10.7698 -7.31645 2.07376 19.01946 -0.92578 -5.2095 3.49645 9.05613
0.0013 0.57932 0.00235 181.29169 0 -6.06541 2.12107 2.49552 -3.81834 -32.29375 9.36735 8.29117 22.1627 -25.93502 6.06878 9.68819 80.76703 -1.29547 -1.90069 23.68122 2.82491 -5.79535 6.71251 -79.53309 -2.69378 1.74424 0.81911 3.9691 4.74138 -10.20542 -14.06315 -2.21679 -11.08892 -7.20832 1.95813 18.99205 -0.93763 -5.18567 3.50679 9.128
0.0026 0.57938 0.00469 181.23874 0 -6.15643 1.96104 2.39725 -3.88598 -32.48568 9.58058 8.62452 22.61707 -26.43876 6.67557 9.86975 80.67365 -1.35854 -2.02082 24.63235 2.49639 -6.53548 6.92017 -79.44292 -2.72733 1.95232 1.33829 3.93196 5.26211 -10.94851 -14.13806 -2.1285 -11.40781 -7.10059 1.84355 18.96521 -0.94939 -5.16195 3.51702 9.19892
0.0039 0.57943 0.00701 181.1855 0 -6.24856 1.80219 2.30027 -3.95305 -32.67412 9.79342 8.95337 23.0729 -26.93928 7.28752 10.05558 80.58208 -1.42351 -2.14349 25.58118 2.17286 -7.27418 7.1288 -79.35719 -2.76153 2.16052 1.86302 3.89954 5.78351 -11.70294 -14.2108 -2.04187 -11.72854 -6.99316 1.73171 18.94288 -0.96142 -5.13832 3.52683 9.26484
0.00522 0.57948 0.00942 181.13286 0 -6.33424 1.63753 2.19699 -4.02156 -32.88535 10.00703 9.30727 23.52324 -27.45725 7.86956 10.21757 80.48058 -1.47821 -2.25168 26.5447 1.82148 -8.02205 7.33105 -79.2478 -2.79189 2.3669 2.35545 3.83925 6.30389 -12.39371 -14.29785 -1.9463 -12.03919 -6.8838 1.60495 18.89966 -0.97265 -5.11408 3.53875 9.35496
0.00648 0.57955 0.01164 181.07964 0 -6.43385 1.48505 2.10678 -4.08805 -33.04522 10.21969 9.60698 23.9832 -27.93751 8.516 10.43062 80.40044 -1.55471 -2.3911 27.47444 1.53032 -8.74869 7.54746 -79.18866 -2.8306 2.57774 2.91766 3.83989 6.82416 -13.22087 -14.35265 -1.86985 -12.37107 -6.77887 1.51015 18.89867 -0.98516 -5.09128 3.54629 9.39536
0.00761 0.5797 0.01341 181.01831 0 -6.57313 1.36546 2.05448 -4.14171 -33.08649 10.42792 9.76706 24.49524 -28.32556 9.35031 10.78891 80.37721 -1.69445 -2.61767 28.34711 1.39525 -9.44354 7.80288 -79.27089 -2.892 2.80009 3.67833 3.99911 7.37392 -14.43892 -14.33348 -1.84506 -12.77035 -6.68175 1.50196 19.0357 -1.00512 -5.07083 3.54066 9.28084
0.00866 0.57988 0.01498 180.95779 0 -6.72638 1.25822 2.01499 -4.19492 -33.07119 10.63572 9.87075 25.01207 -28.67372 10.24839 11.19821 80.37594 -1.85571 -2.87569 29.17925 1.32269 -10.11244 8.07276 -79.4035 -2.96194 3.02719 4.50866 4.22183 7.91895 -15.79177 -14.27956 -1.83975 -13.18932 -6.58986 1.52638 19.21175 -1.02569 -5.05204 3.53079 9.11882
0.00972 0.58005 0.01662 180.90074 0 -6.87268 1.1456 1.96836 -4.25287 -33.06725 10.84521 9.99389 25.51177 -29.03296 11.11226 11.58207 80.36594 -2.00548 -3.11922 30.00839 1.22802 -10.77713 8.33659 -79.51143 -3.02832 3.25305 5.30513 4.42202 8.44715 -17.07736 -14.23091 -1.82622 -13.59483 -6.49821 1.5369 19.35604 -1.04347 -5.03363 3.52358 8.99036
0.01088 0.58022 0.01836 180.82644 0 -7.02163 1.03182 1.92726 -4.29089 -33.12576 11.04852 10.14308 26.0778 -29.42217 11.99947 11.97607 80.35056 -2.16285 -3.36419 30.93076 1.10682 -11.5108 8.59873 -79.62675 -3.09342 3.47552 6.11325 4.59544 9.05439 -18.39488 -14.22418 -1.81003 -14.02172 -6.39523 1.54337 19.55893 -1.07186 -5.01074 3.51332 8.81309
0.01183 0.58038 0.01985 180.78959 0 -7.16819 0.92365 1.87773 -4.3713 -33.03838 11.26441 10.22462 26.50269 -29.73912 12.85147 12.36024 80.35173 -2.30899 -3.61284 31.64561 1.05567 -12.09267 8.86713 -79.73883 -3.16311 3.70555 6.91058 4.83975 9.49712 -19.66944 -14.12501 -1.80398 -14.40572 -6.31747 1.56623 19.64977 -1.07831 -4.99718 3.50832 8.72405
0.01229 0.5805 0.02074 180.84442 0 -7.30624 0.82551 1.80129 -4.56014 -32.58131 11.51698 10.13281 26.57097 -29.86961 13.60604 12.7116 80.39203 -2.4232 -3.87067 31.82818 1.18295 -12.27846 9.15522 -79.828 -3.24425 3.9608 7.6875 5.26368 9.47477 -20.86485 -13.75192 -1.82119 -14.6924 -6.30488 1.62451 19.41525 -1.02358 -5.01244 3.51969 8.9086
0.01254 0.5806 0.02139 180.93903 0 -7.441 0.733 1.71597 -4.7931 -31.97511 11.782 9.97461 26.48996 -29.92815 14.32011 13.04977 80.4484 -2.52449 -4.12968 31.79657 1.3784 -12.30905 9.44793 -79.9124 -3.32952 4.22242 8.44611 5.75666 9.28818 -21.9984 -13.29188 -1.8479 -14.93019 -6.31822 1.69839 19.0678 -0.94666 -5.03644 3.53635 9.18016
0.01287 0.58071 0.02214 181.02296 0 -7.57644 0.63957 1.63511 -5.01185 -31.42531 12.03999 9.84743 26.45573 -30.01744 15.04267 13.38986 80.49824 -2.62891 -4.38403 31.84411 1.54254 -12.4 9.73473 -80.00013 -3.41238 4.47764 9.19599 6.21866 9.18603 -23.11343 -12.88969 -1.87025 -15.17364 -6.32156 1.76651 18.7763 -0.8804 -5.05411 3.55008 9.39984
0.01329 0.58083 0.02292 181.0757 0 -7.71628 0.53985 1.55307 -5.20673 -30.9242 12.30329 9.716 26.51349 -30.11348 15.80935 13.75003 80.54577 -2.74592 -4.65772 31.97116 1.71064 -12.5339 10.03842 -80.085 -3.49794 4.74811 10.02089 6.68204 9.04683 -24.43205 -12.40965 -1.89351 -15.48854 -6.31693 1.83063 18.4667 -0.81243 -5.08157 3.56593 9.66989
0.01345 0.58093 0.02357 181.20282 0 -7.84538 0.45417 1.47097 -5.46081 -30.2837 12.55907 9.57677 26.3405 -30.17898 16.47364 14.06321 80.60141 -2.83302 -4.88996 31.87707 1.88536 -12.5407 10.30748 -80.17366 -3.57855 4.98788 10.68354 7.15704 8.94025 -25.30767 -12.07058 -1.91679 -15.64169 -6.33579 1.90577 18.16736 -0.74187 -5.09097 3.57861 9.85639
0.01293 0.58096 0.02388 181.52592 0 -7.951 0.40779 1.39307 -5.87533 -29.32403 12.78592 9.44617 25.59844 -30.17727 16.86514 14.26109 80.67743 -2.84331 -5.01591 31.26984 2.06565 -12.24416 10.48254 -80.27713 -3.64597 5.14433 10.90862 7.65616 9.01101 -24.99619 -12.15083 -1.93854 -15.36883 -6.40619 2.01255 17.92485 -0.67733 -5.04582 3.58161 9.79034
0.01214 0.58096 0.02406 181.92245 0 -8.04484 0.37494 1.31501 -6.34582 -28.2247 13.00558 9.30753 24.62392 -30.14755 17.15473 14.40969 80.76064 -2.82328 -5.0982 30.43981 2.24909 -11.82362 10.6218 -80.38373 -3.7079 5.26895 10.96969 8.1626 9.11093 -24.23694 -12.37457 -1.95981 -14.9332 -6.50059 2.12879 17.69632 -0.60964 -4.98255 3.58115 9.63743
0.01145 0.58097 0.02429 182.28511 0 -8.1405 0.33453 1.2354 -6.78641 -27.16964 13.2321 9.16396 23.7344 -30.13121 17.49054 14.57337 80.83914 -2.81537 -5.19501 29.68171 2.42828 -11.45336 10.77581 -80.48656 -3.77141 5.40633 11.10142 8.65949 9.16737 -23.66751 -12.52692 -1.98063 -14.56623 -6.58855 2.23723 17.46042 -0.5381 -4.92933 3.58205 9.52505
0.01086 0.58101 0.02454 182.65118 0 -8.25105 0.30017 1.162 -7.25001 -26.18782 13.44457 9.05497 22.92462 -30.10973 17.82512 14.76795 80.92411 -2.81427 -5.3151 29.03759 2.62216 -11.10237 10.93721 -80.5992 -3.83916 5.5517 11.24842 9.18506 9.34801 -23.15153 -12.70193 -2.00435 -14.2198 -6.6586 2.36099 17.22432 -0.48748 -4.86913 3.58414 9.41171
